<svg xmlns="http://www.w3.org/2000/svg" version="1.1" xmlns:xlink="http://www.w3.org/1999/xlink" xmlns:svgjs="http://svgjs.dev/svgjs" viewBox="0 0 5.079866991195222 4.068832062999798"><g transform="matrix(1,0,0,1,2.540566019400501,3.877937775112674)"><g transform="matrix(1,0,0,1,0,0)"><path d=" M -1.4949390583694637 -1.6104837908479879 Q -1.576043142518895 -1.5549376160536608 -1.6810197220616807 -1.5848862011203582 L -1.6127223865618832 -1.7824120828767196 Q -1.576773345262913 -1.773156466760818 -1.5544977980650454 -1.7855580794396424 Q -1.532222250867178 -1.7979596921184668 -1.5224188055801255 -1.8263126894997628 Q -1.5135957048217785 -1.8518303871429291 -1.5206358772259145 -1.8727811859945254 Q -1.5276760496300505 -1.8937319848461214 -1.5503584475350873 -1.9015747410757633 Q -1.5796565448290931 -1.9117049678723839 -1.6051999071226446 -1.8898523560664608 Q -1.6307432694161963 -1.8679997442605378 -1.67183116570505 -1.8134306616353333 Q -1.7161163878575971 -1.7557347423784262 -1.7503242501375165 -1.7225937985439777 Q -1.784532112417436 -1.6894528547095293 -1.8340473763463003 -1.6732436401062576 Q -1.8835626402751644 -1.6570344255029859 -1.9468843344267253 -1.6789287866440694 Q -2.011151128490996 -1.7011499292947212 -2.0458779029320984 -1.7491322295409244 Q -2.080604677373201 -1.7971145297871276 -2.084625284616843 -1.8619900622889296 Q -2.088645891860485 -1.9268655947907316 -2.063810497133286 -1.9986931881566812 Q -2.0236163714563715 -2.1149404774199945 -1.945254685522276 -2.165615384203986 Q -1.8668929995881811 -2.2162902909879776 -1.7669687011185131 -2.187030513556412 L -1.8365731626565844 -1.9857242321492112 Q -1.8671431413728685 -1.9952361405426904 -1.8883101979032417 -1.9829802963106524 Q -1.9094772544336152 -1.9707244520786147 -1.918953918211099 -1.9433165546100284 Q -1.926143111421604 -1.9225243565304115 -1.9184317536903337 -1.9050447981280842 Q -1.910720395959063 -1.8875652397257567 -1.8880379980540263 -1.8797224834961148 Q -1.8691359997998291 -1.8731868533047467 -1.8503669376672258 -1.8830975700630077 Q -1.8315978755346225 -1.8930082868212685 -1.8141583517310953 -1.911314378963127 Q -1.7967188279275685 -1.9296204711049856 -1.7668920613936323 -1.966921463023835 Q -1.7232604022602218 -2.0227271824553226 -1.6877806585580242 -2.0564864446929123 Q -1.6523009148558263 -2.090245706930502 -1.603730750839672 -2.1067817030433424 Q -1.5551605868235177 -2.1233176991561824 -1.496564392235506 -2.1030572455629413 Q -1.4370230977347846 -2.0824700104601312 -1.4000617196506964 -2.03636028773135 Q -1.363100341566608 -1.9902505650025688 -1.3551359439173425 -1.924540456418848 Q -1.3471715462680767 -1.8588303478351274 -1.373640848543118 -1.7822772549056283 Q -1.4138349742200322 -1.6660299656423152 -1.4949390583694637 -1.6104837908479879 M -1.2186139266066944 -2.3538224366413845 L -1.0756117759708308 -2.519687999412919 L -0.9620052261273141 -2.4217413208952037 L -1.2329910366929917 -2.107429866328141 L -1.7669418209575198 -2.5677792553614007 L -1.638958161027706 -2.716225147156929 L -1.2186139266066944 -2.3538224366413845 M -0.5521290999039028 -2.779795605892809 L -0.7788906561199347 -2.6745378431269042 L -0.7649398417924553 -2.554228347327112 L -0.9517913641144656 -2.4674959508080065 L -1.0155073753242356 -3.2151685194605664 L -0.8105149285049429 -3.310321537000944 L -0.2814842039398756 -2.7786378975440202 L -0.4692427724867499 -2.6914844699738514 L -0.5521290999039028 -2.779795605892809 M -0.6597290225817878 -2.8952220181203105 L -0.8246596153139665 -3.0700301975084967 L -0.7966930025362711 -2.831646329409704 L -0.6597290225817878 -2.8952220181203105 M 0.44773595933208443 -2.726801481104439 L 0.2524214713793097 -2.7431798447511966 L 0.025258175058637422 -3.1576117894715887 L -0.0076656783945382445 -2.7649898085869298 L -0.20298016634731292 -2.781368172233687 L -0.1440681950668844 -3.483902427369943 L 0.05124629288589028 -3.4675240637231854 L 0.2779917738074106 -3.0481096065550184 L 0.3113334426597383 -3.4457140998874523 L 0.506647930612513 -3.429335736240695 L 0.44773595933208443 -2.726801481104439 M 1.0305938482356427 -3.2063174017748484 L 0.7243922472911315 -2.5712854501542877 L 0.5478443571952025 -2.6564138385019818 L 0.854045958139714 -3.2914457901225425 L 1.0305938482356427 -3.2063174017748484 M 1.2896889198805357 -2.061634353561651 L 1.155247975140586 -2.204258448221108 L 1.262925560440072 -2.664435085637733 L 0.9762220232164693 -2.3941813497829365 L 0.8417810784765196 -2.5368054444423933 L 1.354791214879159 -3.0203812915937434 L 1.4892321596191085 -2.877757196934286 L 1.3779162045579016 -2.4141509435804176 L 1.6682581115432251 -2.6878342953724577 L 1.802699056283175 -2.545210200713001 L 1.2896889198805357 -2.061634353561651 M 1.91101579259339 -1.9262854339250761 L 1.8014382454498221 -1.8913889991215151 L 1.8697138787611371 -1.676998146014535 L 1.7277394915925144 -1.6317845043994863 L 1.6594638582811996 -1.8461753575064666 L 1.5384521323052596 -1.8076375555929687 L 1.6158311833914163 -1.5646612554050576 L 1.4662340103345457 -1.5170200357167178 L 1.3293792964527542 -1.9467545901667098 L 2.001137302854626 -2.160684907875497 L 2.1379920167364177 -1.7309503534255049 L 1.9883948436795469 -1.683309133737165 L 1.91101579259339 -1.9262854339250761" fill="#00adad" fill-rule="nonzero"></path></g><g transform="matrix(1,0,0,1,0,0)"><g clip-path="url(#SvgjsClipPath1002)"><g clip-path="url(#SvgjsClipPath1001559128e4-3ccb-40ee-bb49-8ee0065c8b3e)"><path d=" M -0.9587953917611042 -1.8481831068868178 L 0 -2.401744142515757 L 0.9587953917611042 -1.8481831068868178 L 0 -1.3140428375911937 L -0.9587953917611042 -1.8481831068868178 Z" fill="#00adad" transform="matrix(1,0,0,1,0,0)" fill-rule="nonzero"></path></g><g clip-path="url(#SvgjsClipPath1001559128e4-3ccb-40ee-bb49-8ee0065c8b3e)"><path d=" M -0.9587953917611042 -1.8481831068868178 L 0 -1.3140428375911937 L 0 -0.1875 L -0.9587953917611042 -0.7410610356289393 L -0.9587953917611042 -1.8481831068868178 Z" fill="#6de2d4" transform="matrix(1,0,0,1,0,0)" fill-rule="nonzero"></path></g><g clip-path="url(#SvgjsClipPath1001559128e4-3ccb-40ee-bb49-8ee0065c8b3e)"><path d=" M 0 -0.1875 L 0 -1.3140428375911937 L 0.9587953917611042 -1.8481831068868178 L 0.9587953917611042 -0.7410610356289393 L 0 -0.1875 Z" fill="#3a8291" transform="matrix(1,0,0,1,0,0)" fill-rule="nonzero"></path></g><g clip-path="url(#SvgjsClipPath1001559128e4-3ccb-40ee-bb49-8ee0065c8b3e)"><path d=" M 0.7858629242306235 -0.8409049944218789 L 0 -0.38718791758587967 L -0.7858629242306236 -0.8409049944218789 L 0 -1.2787071914835466 L 0.7858629242306235 -0.8409049944218789 Z" fill="#00adad" transform="matrix(1,0,0,1,0,0)" fill-rule="nonzero"></path></g><g clip-path="url(#SvgjsClipPath1001559128e4-3ccb-40ee-bb49-8ee0065c8b3e)"><path d=" M 0.7858629242306235 -0.8409049944218789 L 0 -1.2787071914835466 L 0 -2.2020562249298776 L 0.7858629242306235 -1.748339148093878 L 0.7858629242306235 -0.8409049944218789 Z" fill="#6de2d4" transform="matrix(1,0,0,1,0,0)" fill-rule="nonzero"></path></g><g clip-path="url(#SvgjsClipPath1001559128e4-3ccb-40ee-bb49-8ee0065c8b3e)"><path d=" M 0 -2.2020562249298776 L 0 -1.2787071914835466 L -0.7858629242306236 -0.8409049944218789 L -0.7858629242306236 -1.748339148093878 L 0 -2.2020562249298776 Z" fill="#3a8291" transform="matrix(1,0,0,1,0,0)" fill-rule="nonzero"></path></g><g clip-path="url(#SvgjsClipPath1001559128e4-3ccb-40ee-bb49-8ee0065c8b3e)"><path d=" M -0.41201547881861955 -1.516581594510562 L -0.41201547881861955 -1.0408235624392703 L 0 -0.8029491594122549 L 0.41201547881861955 -1.0408235624392703 L 0.41201547881861955 -1.516581594510562 L 0 -1.7544559975375775 L -0.41201547881861955 -1.516581594510562 Z" fill="#c1c9f9" transform="matrix(1,0,0,1,0,0)" fill-rule="nonzero"></path></g><g clip-path="url(#SvgjsClipPath1001559128e4-3ccb-40ee-bb49-8ee0065c8b3e)"><path d=" M 0 -1.7544559975375775 L -0.41201547881861955 -1.516581594510562 L 0 -1.2787071914835466 L 0.41201547881861955 -1.516581594510562 L 0 -1.7544559975375775 Z" fill="#e2e8ff" transform="matrix(1,0,0,1,0,0)" fill-rule="nonzero"></path></g><g clip-path="url(#SvgjsClipPath1001559128e4-3ccb-40ee-bb49-8ee0065c8b3e)"><path d=" M 0 -1.2787071914835466 L 0 -0.8029491594122549 L 0.41201547881861955 -1.0408235624392703 L 0.41201547881861955 -1.516581594510562 L 0 -1.2787071914835466 Z" fill="#989eeb" transform="matrix(1,0,0,1,0,0)" fill-rule="nonzero"></path></g></g></g></g><defs><clipPath id="SvgjsClipPath1002"><path d=" M -0.9587953917611042 -2.401744142515757 h 1.9175907835222084 v 2.214244142515757 h -1.9175907835222084 Z"></path></clipPath><clipPath id="SvgjsClipPath1001559128e4-3ccb-40ee-bb49-8ee0065c8b3e"><path d=" M -0.9587953917611042 -2.401744142515757 L 0.9587953917611042 -2.401744142515757 L 0.9587953917611042 -0.1875 L -0.9587953917611042 -0.1875 Z"></path></clipPath></defs></svg>